<svg xmlns="http://www.w3.org/2000/svg" viewBox="0 0 180 180">
  <!-- White Circle Background -->
  <circle cx="90" cy="90" r="88" fill="#FFFFFF"/>
  
  <!-- Professional Bull Silhouette -->
  <g transform="translate(0,180) scale(0.1,-0.1)" fill="#DB0A40">
    <path d="M1116 1280 c-66 -21 -157 -79 -181 -116 -23 -35 -6 -29 59 20 82 65
    132 81 246 81 84 0 102 -3 153 -28 75 -37 113 -70 154 -134 74 -117 80 -249
    15 -375 -64 -124 -167 -189 -312 -196 -74 -4 -93 -1 -148 21 -35 14 -76 36
    -92 49 -83 67 -107 77 -68 29 54 -66 156 -117 259 -128 174 -18 355 102 412
    271 22 65 22 188 0 252 -69 206 -291 320 -497 254z"/>
    <path d="M240 1122 c0 -35 27 -62 63 -62 15 0 27 -3 27 -7 0 -3 -18 -23 -40
    -43 -32 -29 -40 -44 -40 -72 0 -52 36 -81 93 -77 l45 4 5 -50 c5 -55 -2 -65
    -45 -65 -22 0 -28 -5 -28 -21 0 -20 -53 -79 -71 -79 -5 0 -9 -4 -9 -9 0 -5 -3
    -16 -6 -25 -10 -25 52 -21 66 4 7 13 21 20 39 20 16 0 34 7 41 15 8 10 31 15
    66 15 29 0 56 5 59 10 4 6 10 8 14 5 10 -6 47 62 39 71 -4 3 -17 -6 -30 -20
    -18 -21 -37 -29 -86 -36 -35 -5 -75 -16 -89 -25 -34 -23 -40 -12 -7 14 15 11
    38 21 51 21 13 0 43 5 67 11 48 12 76 48 76 98 0 47 18 37 22 -11 l3 -42 82
    -3 c77 -2 82 -1 86 20 4 21 5 21 11 2 4 -11 23 -30 42 -43 41 -27 45 -58 8
    -74 -24 -11 -28 -9 -53 20 -18 22 -35 32 -53 32 -16 0 -28 -4 -28 -10 0 -13
    32 -50 43 -50 5 0 17 -10 27 -22 18 -23 19 -23 68 -5 27 9 57 17 66 17 22 0
    49 45 43 72 -8 30 -34 65 -42 56 -4 -3 1 -20 10 -37 12 -24 13 -36 5 -51 -14
    -27 -23 -25 -16 3 3 14 -2 36 -15 56 -20 33 -18 51 6 51 17 0 35 31 34 57 -1
    10 -6 4 -11 -14 -8 -25 -17 -33 -34 -33 -28 0 -31 -21 -9 -64 17 -32 20 -70 5
    -61 -5 3 -10 14 -10 24 0 23 -23 71 -34 71 -4 0 -5 -8 -2 -17 3 -10 -7 -3 -22
    15 -30 34 -46 40 -59 20 -11 -18 -95 -17 -110 2 -11 13 -12 13 -13 -2 0 -34
    -19 -18 -22 20 -2 24 -8 37 -18 37 -8 0 -18 -15 -23 -37 -5 -22 -15 -38 -23
    -38 -8 0 -18 -8 -21 -17 -10 -26 -24 -33 -68 -32 -39 1 -39 1 -14 12 25 12 25
    13 13 70 -9 48 -9 59 2 64 8 3 11 9 8 14 -3 5 0 9 6 9 6 0 18 7 27 15 8 8 19
    13 24 9 5 -3 8 0 7 8 -2 7 8 14 22 16 27 3 53 14 112 44 21 11 43 16 50 12 7
    -4 8 -3 4 4 -7 12 5 16 33 13 7 -2 10 2 6 8 -3 6 2 11 13 11 11 0 23 7 26 16
    4 11 14 15 31 12 13 -3 22 -1 19 3 -7 11 34 31 48 23 7 -4 8 -3 4 4 -5 8 2 12
    18 12 16 0 26 -6 26 -15 0 -18 20 -20 20 -2 0 6 7 3 16 -8 8 -11 20 -19 25
    -17 5 1 9 -5 9 -13 0 -8 8 -15 17 -15 9 0 14 -3 10 -6 -8 -8 25 -44 40 -44 12
    0 18 -14 13 -35 -1 -5 2 -7 6 -3 12 12 33 -25 33 -57 l-1 -30 -10 35 c-9 30
    -11 32 -18 15 -5 -13 -1 -29 12 -48 12 -17 18 -38 15 -53 -3 -18 -1 -24 9 -20
    8 3 14 0 14 -6 0 -6 6 -18 14 -27 55 -60 67 -71 82 -71 12 0 9 7 -13 28 -37
    35 -72 107 -82 171 -9 60 -55 124 -139 194 -72 60 -94 66 -146 39 -23 -11 -62
    -29 -87 -40 -26 -11 -50 -25 -53 -31 -4 -6 -17 -11 -30 -11 -13 0 -41 -13 -62
    -28 -22 -16 -57 -32 -79 -36 -22 -4 -62 -23 -90 -41 -64 -43 -97 -52 -119 -30
    -28 28 -19 57 30 102 39 34 46 45 40 66 -4 19 -18 29 -56 42 -27 9 -52 21 -55
    26 -12 18 -25 8 -25 -19z"/>
    <path d="M870 1023 c1 -10 7 -31 16 -48 14 -29 14 -29 9 -3 -3 14 -8 34 -12
    43 -4 12 -2 16 7 13 8 -2 18 -20 24 -39 6 -24 11 -29 13 -16 6 23 -23 67 -42
    67 -8 0 -15 -8 -15 -17z"/>
    <path d="M903 833 c-6 -21 -10 -39 -9 -41 2 -1 23 0 47 4 36 6 40 8 21 15 -12
    5 -28 6 -35 3 -10 -4 -12 3 -9 26 6 41 -1 38 -15 -7z"/>
    <path d="M953 762 c-18 -24 -21 -42 -14 -86 0 -5 18 -6 39 -2 20 4 49 8 65 10
    15 1 32 7 39 14 8 8 18 7 37 -7 32 -23 71 -35 71 -23 0 5 -11 14 -25 20 -14 6
    -25 16 -25 22 0 6 -4 8 -10 5 -5 -3 -7 0 -4 8 3 8 -2 20 -11 27 -11 9 -15 9
    -15 1 0 -12 -24 -41 -34 -41 -3 0 -3 6 0 14 3 8 1 17 -4 20 -5 3 -12 -3 -15
    -14 -3 -10 -13 -19 -23 -19 -11 0 -31 -2 -46 -5 -17 -3 -29 1 -32 10 -3 9 -1
    12 4 9 6 -3 10 -1 10 6 0 8 5 7 18 -2 15 -12 16 -12 5 2 -7 8 -10 25 -6 37 7
    29 1 28 -24 -6z"/>
    <path d="M248 706 c-10 -7 -18 -18 -18 -25 0 -16 25 -14 40 4 18 22 0 37 -22
    21z"/>
    <path d="M757 699 c22 -23 46 -18 36 6 -3 8 -17 15 -31 15 l-26 0 21 -21z"/>
    <path d="M203 669 c-6 -6 -9 -18 -6 -25 3 -8 0 -14 -6 -14 -19 0 -12 -27 8
    -33 15 -3 20 2 25 25 7 37 -5 63 -21 47z"/>
  </g>
</svg>